<?xml version="1.0" encoding="UTF-8" standalone="no"?>
<svg
   xmlns:dc="http://purl.org/dc/elements/1.1/"
   xmlns:cc="http://creativecommons.org/ns#"
   xmlns:rdf="http://www.w3.org/1999/02/22-rdf-syntax-ns#"
   xmlns:svg="http://www.w3.org/2000/svg"
   xmlns="http://www.w3.org/2000/svg"
   viewBox="0 0 57.5 72.158875"
   height="72.158875"
   width="57.5"
   xml:space="preserve"
   version="1.1"
   id="svg2"><metadata
     id="metadata8"><rdf:RDF><cc:Work
         rdf:about=""><dc:format>image/svg+xml</dc:format><dc:type
           rdf:resource="http://purl.org/dc/dcmitype/StillImage" /></cc:Work></rdf:RDF></metadata><defs
     id="defs6"><clipPath
       id="clipPath16"
       clipPathUnits="userSpaceOnUse"><path
         id="path18"
         d="m 0,57.727 46,0 L 46,0 0,0 0,57.727 Z" /></clipPath></defs><g
     transform="matrix(1.25,0,0,-1.25,0,72.158875)"
     id="g10"><g
       id="g12"><g
         clip-path="url(#clipPath16)"
         id="g14"><g
           transform="translate(23.1221,0)"
           id="g20"><path
             id="path22"
             style="fill:#e45028;fill-opacity:1;fill-rule:evenodd;stroke:none"
             d="M 0,0 -0.185,0 C -0.257,0.075 -0.319,0.164 -0.401,0.225 -3.224,2.3 -5.894,4.549 -8.42,6.98 c -2.671,2.572 -5.124,5.332 -7.328,8.306 -1.931,2.607 -3.59,5.385 -4.87,8.378 -1.147,2.684 -1.96,5.454 -2.282,8.364 -0.476,4.299 0.138,8.418 1.962,12.35 1.403,3.025 3.372,5.619 5.893,7.795 1.649,1.423 3.468,2.591 5.452,3.483 1.698,0.764 3.453,1.367 5.3,1.668 0.876,0.142 1.755,0.269 2.633,0.403 l 3.136,0 c 0.117,-0.029 0.232,-0.072 0.351,-0.083 2.026,-0.199 3.996,-0.613 5.915,-1.317 4.017,-1.474 7.367,-3.869 10.053,-7.187 2.196,-2.714 3.689,-5.782 4.486,-9.182 C 23.32,35.526 22.963,31.173 21.516,26.889 19.771,21.725 16.86,17.228 13.432,13.054 11.915,11.207 10.271,9.459 8.622,7.728 6.449,5.448 4.102,3.354 1.646,1.381 1.087,0.933 0.548,0.461 0,0" /></g><g
           transform="translate(29.8994,39.0547)"
           id="g24"><path
             id="path26"
             style="fill:#ffffff;fill-opacity:1;fill-rule:nonzero;stroke:none"
             d="m 0,0 c -0.405,-0.546 -1.076,-0.881 -1.873,-0.918 -1.148,-0.054 -1.704,0.943 -1.803,3.062 -0.083,1.801 0.299,5.251 0.237,6.589 L -3.483,9.689 C -3.866,9.672 -5.643,2.212 -6.604,0.891 -6.888,0.462 -7.365,0.073 -7.954,0.045 c -1.354,-0.062 -2.287,1.459 -2.397,3.817 -0.071,1.547 0.211,4.402 0.06,7.651 -0.016,0.352 -0.086,0.492 -0.149,0.489 -1.275,-0.06 -4.119,-8.638 -4.255,-12.923 -0.019,-0.624 0.093,-1.673 0.246,-2.225 -1.537,0.104 -3.183,0.124 -3.255,1.669 -0.066,1.418 0.673,4.438 1.555,7.115 0.616,1.864 3.002,8.266 5.519,8.383 2.788,0.129 2.463,-4.916 2.685,-9.68 0.035,-0.764 0.061,-1.322 0.16,-1.733 2.617,7.594 3.103,9.837 4.665,9.909 0.893,0.042 1.586,-1.124 1.658,-2.685 C -1.42,8.923 -1.431,7.087 -1.378,5.972 -1.146,0.952 -0.628,1.136 0,0" /></g><g
           transform="translate(38.4307,46.3853)"
           id="g28"><path
             id="path30"
             style="fill:#ffffff;fill-opacity:1;fill-rule:nonzero;stroke:none"
             d="m 0,0 c -0.021,-1.008 -2.636,-5.102 -5.12,-5.051 -1.365,0.029 -2.047,0.912 -2.023,2.075 0.021,1.01 0.507,2.025 0.878,2.686 -2.383,0.405 -2.671,1.514 -2.658,2.135 0.026,1.241 1.219,1.87 1.979,1.854 C -6.339,3.687 -6.162,3.187 -6.169,2.86 -6.177,2.488 -6.341,2.041 -6.602,1.503 -5.427,1.214 -3.501,1.191 -3.52,0.274 c -0.016,-0.837 -1.427,-2.223 -1.451,-3.356 -0.008,-0.418 0.172,-0.655 0.499,-0.662 1.304,-0.027 2.98,2.921 3.74,4.366 C -0.191,0.517 0.006,0.31 0,0" /></g><g
           transform="translate(40.1084,35.4014)"
           id="g32"><path
             id="path34"
             style="fill:#ffffff;fill-opacity:1;fill-rule:nonzero;stroke:none"
             d="m 0,0 c -0.015,-0.735 -1.92,-3.718 -3.729,-3.681 -0.997,0.021 -1.493,0.665 -1.475,1.513 0.016,0.735 0.37,1.475 0.64,1.957 -1.737,0.295 -1.947,1.103 -1.937,1.555 0.019,0.905 0.888,1.363 1.442,1.351 C -4.618,2.687 -4.49,2.322 -4.495,2.084 -4.5,1.813 -4.62,1.487 -4.809,1.095 -3.953,0.884 -2.551,0.868 -2.564,0.2 c -0.013,-0.611 -1.04,-1.619 -1.057,-2.446 -0.007,-0.305 0.126,-0.477 0.363,-0.483 0.95,-0.019 2.171,2.129 2.725,3.182 C -0.139,0.376 0.006,0.226 0,0" /></g><g
           transform="translate(40.3994,27.9502)"
           id="g36"><path
             id="path38"
             style="fill:#ffffff;fill-opacity:1;fill-rule:nonzero;stroke:none"
             d="m 0,0 c -0.012,-0.578 -1.513,-2.928 -2.938,-2.899 -0.784,0.016 -1.176,0.523 -1.162,1.192 0.012,0.578 0.291,1.161 0.504,1.541 -1.368,0.232 -1.533,0.869 -1.526,1.226 0.016,0.712 0.7,1.072 1.137,1.064 0.347,-0.007 0.448,-0.295 0.444,-0.482 -0.004,-0.213 -0.099,-0.471 -0.248,-0.779 0.674,-0.166 1.78,-0.179 1.769,-0.706 -0.009,-0.48 -0.82,-1.275 -0.834,-1.927 -0.003,-0.239 0.1,-0.376 0.288,-0.378 0.748,-0.016 1.711,1.676 2.146,2.505 C -0.109,0.297 0.004,0.179 0,0" /></g><g
           transform="translate(37.9248,42.1226)"
           id="g40"><path
             id="path42"
             style="fill:#ffffff;fill-opacity:1;fill-rule:nonzero;stroke:none"
             d="M 0,0 C 0.018,0.846 0.938,1.468 2.033,1.445 3.147,1.423 4.003,0.888 3.989,0.208 3.967,-0.887 2.85,-1.979 1.735,-1.956 0.621,-1.933 -0.013,-0.64 0,0" /></g><g
           transform="translate(21.7124,23.8682)"
           id="g44"><path
             id="path46"
             style="fill:#ffffff;fill-opacity:1;fill-rule:nonzero;stroke:none"
             d="M 0,0 C 0.011,0.529 0.586,0.918 1.271,0.904 1.967,0.89 2.502,0.555 2.494,0.13 2.48,-0.554 1.782,-1.237 1.084,-1.223 0.387,-1.208 -0.008,-0.399 0,0" /></g><g
           transform="translate(12.8892,33.1147)"
           id="g48"><path
             id="path50"
             style="fill:#ffffff;fill-opacity:1;fill-rule:nonzero;stroke:none"
             d="M 0,0 C 0.011,0.53 0.587,0.918 1.271,0.904 1.967,0.89 2.502,0.556 2.494,0.13 2.48,-0.554 1.782,-1.236 1.085,-1.222 0.388,-1.208 -0.008,-0.4 0,0" /></g><g
           transform="translate(25.8174,29.1953)"
           id="g52"><path
             id="path54"
             style="fill:#ffffff;fill-opacity:1;fill-rule:nonzero;stroke:none"
             d="m 0,0 c -0.025,-1.276 -1.092,-2.851 -3.67,-2.798 -1.468,0.03 -2.513,0.729 -2.498,1.469 0.004,0.217 0.149,0.419 0.381,0.554 0.391,-0.238 0.871,-0.491 1.79,-0.509 1.442,-0.029 2.114,0.965 2.135,1.96 0.019,0.97 -0.566,1.672 -1.434,1.716 -0.74,0.015 -1.417,0.015 -1.92,-0.267 -0.419,0.148 -0.617,0.446 -0.611,0.727 0.011,0.536 0.449,0.744 1.011,0.732 0.242,-0.005 0.497,-0.048 0.75,-0.117 0.901,0.313 2.236,1.282 2.264,2.66 0.024,1.174 -0.969,1.91 -2.615,1.943 C -4.763,8.078 -5.121,8.046 -5.492,8.003 -5.405,7.86 -5.357,7.719 -5.36,7.579 -7.019,4.498 -7.315,-1.88 -6.17,-3.908 c -0.17,-0.189 -0.989,-0.274 -1.359,-0.266 -0.919,0.019 -1.508,0.567 -1.604,1.463 -0.364,2.79 0.568,7.138 1.365,9.292 0.109,0.343 0.23,0.621 0.363,0.874 -0.606,-0.255 -1.136,-0.59 -1.527,-0.952 -0.419,0.123 -0.706,0.398 -0.701,0.666 0.002,0.089 0.029,0.165 0.082,0.254 0.291,0.492 2.488,1.748 5.384,1.689 C -0.401,9.035 0.636,7.328 0.613,6.205 0.579,4.585 -1.167,3.445 -2.478,3.077 -0.813,2.659 0.027,1.289 0,0" /></g><g
           transform="translate(35.9443,35.1958)"
           id="g56"><path
             id="path58"
             style="fill:#ffffff;fill-opacity:1;fill-rule:nonzero;stroke:none"
             d="m 0,0 c -0.011,-0.527 -1.996,-3.944 -3.897,-3.904 -0.777,0.015 -1.268,0.442 -1.43,1.334 -0.556,-0.669 -1.304,-1.291 -2.136,-1.274 -0.972,0.019 -1.444,0.64 -1.421,1.805 0.01,0.472 0.127,1.413 0.147,2.371 0.012,0.623 -0.009,0.944 -0.097,1.404 0.404,0.06 0.794,0.122 1.183,0.114 0.678,-0.014 0.964,-0.353 0.948,-1.13 -0.01,-0.458 -0.157,-1.565 -0.173,-2.328 -0.011,-0.528 0.082,-0.737 0.234,-0.74 0.208,-0.005 0.757,0.345 1.288,1.153 0.053,0.596 0.135,1.218 0.147,1.746 0.01,0.499 -0.024,0.875 -0.104,1.098 0.238,0.038 0.515,0.073 0.766,0.068 0.888,-0.018 1.28,-0.484 1.258,-1.58 -0.007,-0.361 -0.192,-1.315 -0.207,-1.981 -0.013,-0.638 0.064,-0.946 0.314,-0.95 0.471,-0.01 1.825,1.655 2.483,3.294 C -0.362,0.59 0.009,0.43 0,0" /></g><g
           transform="translate(28.6719,24.9014)"
           id="g60"><path
             id="path62"
             style="fill:#ffffff;fill-opacity:1;fill-rule:nonzero;stroke:none"
             d="m 0,0 c -0.685,-0.8 -1.122,-1.712 -1.139,-2.559 -0.005,-0.219 0.044,-0.366 0.17,-0.369 C -0.488,-2.938 -0.13,-1.272 0,0 M 4.258,2.202 C 3.296,2.17 2.337,1.813 1.501,1.286 L 1.495,0.983 C 1.461,-0.678 0.784,-3.56 -1.002,-3.522 c -0.742,0.014 -1.151,0.461 -1.135,1.236 0.025,1.201 0.982,2.477 2.213,3.444 C 0.078,1.231 0.079,1.295 0.069,1.349 -0.293,0.979 -0.693,0.799 -1.122,0.808 -1.833,0.822 -2.23,1.312 -2.214,2.136 -2.188,3.391 -0.836,4.586 0.46,4.56 0.889,4.551 1.312,4.374 1.306,4.029 1.301,3.768 1.025,3.606 0.458,3.473 0.389,3.65 0.296,3.727 0.202,3.728 -0.247,3.737 -0.811,2.756 -0.824,2.087 -0.83,1.794 -0.75,1.678 -0.624,1.676 -0.353,1.67 0.1,2.298 -0.046,2.865 0.464,3.189 0.599,3.187 0.797,3.183 1.236,3.174 1.429,2.877 1.485,2.061 2.298,2.472 3.14,2.717 3.851,2.702 4.111,2.696 4.338,2.535 4.258,2.202" /></g><g
           transform="translate(32.8672,27.126)"
           id="g64"><path
             id="path66"
             style="fill:#ffffff;fill-opacity:1;fill-rule:nonzero;stroke:none"
             d="M 0,0 C -0.004,-0.199 0.003,-0.387 0.03,-0.555 0.361,-0.217 0.62,0.176 0.63,0.656 0.635,0.886 0.555,1.044 0.46,1.046 0.262,1.051 0.011,0.532 0,0 m 4.55,0.137 c -0.01,-0.502 -1.758,-3.132 -3.7,-3.092 -1.474,0.03 -2.519,1.076 -2.49,2.508 0.029,1.38 0.929,2.458 2.057,2.434 0.805,-0.016 1.275,-0.538 1.258,-1.394 -0.02,-0.92 -0.734,-1.585 -1.359,-2 0.203,-0.339 0.492,-0.533 0.847,-0.54 0.804,-0.017 1.88,0.965 2.693,2.422 0.421,0.128 0.702,0.006 0.694,-0.338" /></g><g
           transform="translate(0.0015,40.561)"
           id="g68"><path
             id="path70"
             style="fill:#ffffff;fill-opacity:1;fill-rule:evenodd;stroke:none"
             d="M 0,0 0,0 C 0,-0.001 -0.001,-0.001 -0.001,-0.002 L 0,0 Z" /></g><g
           transform="translate(7.0767,31.1206)"
           id="g72"><path
             id="path74"
             style="fill:#ffffff;fill-opacity:1;fill-rule:evenodd;stroke:none"
             d="m 0,0 c 0.144,0.144 0.288,0.287 0.471,0.47 0.05,-0.356 -0.01,-0.636 -0.173,-0.897 -0.023,-0.051 -0.047,-0.1 -0.069,-0.15 -0.046,-0.145 -0.143,-0.245 -0.27,-0.321 -0.028,-0.019 -0.058,-0.04 -0.087,-0.06 -0.051,-0.032 -0.103,-0.063 -0.154,-0.095 -0.034,-0.009 -0.068,-0.016 -0.101,-0.024 0.003,-0.05 0.006,-0.102 0.009,-0.153 0.524,-0.103 1.042,-0.128 1.548,0.088 0.484,0.206 0.78,0.624 1.122,0.988 0.045,0.109 0.126,0.181 0.224,0.24 C 2.586,0.202 2.675,0.298 2.795,0.361 2.871,0.477 2.977,0.554 3.103,0.604 3.307,0.849 3.605,0.869 3.884,0.935 3.849,1.235 3.501,1.209 3.378,1.419 2.542,1.969 1.675,2.44 0.64,2.472 0.586,2.457 0.532,2.439 0.478,2.423 0.367,2.385 0.258,2.346 0.147,2.311 -0.836,1.999 -1.712,1.441 -2.675,1.084 -3.399,0.815 -4.145,0.717 -4.914,0.772 -5.142,0.79 -5.357,0.961 -5.598,0.836 c 0.406,-0.736 1.063,-1.185 1.799,-1.523 0.85,-0.391 1.717,-0.249 2.579,-0.023 0.213,0.1 0.425,0.201 0.638,0.301 C -0.388,-0.273 -0.194,-0.136 0,0" /></g><g
           transform="translate(13.8311,28.2441)"
           id="g76"><path
             id="path78"
             style="fill:#ffffff;fill-opacity:1;fill-rule:evenodd;stroke:none"
             d="m 0,0 c -0.501,0.168 -1.014,0.301 -1.528,0.104 -0.724,-0.279 -1.449,-0.55 -2.188,-0.786 -0.593,-0.188 -1.192,-0.338 -1.827,-0.276 -0.136,0.015 -0.303,0.093 -0.431,-0.101 1.2,-0.49 2.348,-1.141 3.715,-0.786 0.385,0.156 0.772,0.31 1.156,0.465 0.029,0.018 0.058,0.035 0.085,0.052 0.539,0.269 1.046,0.601 1.608,0.822 C 0.554,-0.15 0.21,-0.152 0,0" /></g><g
           transform="translate(9.3906,38.1147)"
           id="g80"><path
             id="path82"
             style="fill:#ffffff;fill-opacity:1;fill-rule:evenodd;stroke:none"
             d="m 0,0 c -0.351,0.195 -0.803,0.186 -1.177,0.164 -0.513,-0.029 -1.008,-0.032 -1.507,0.07 -0.039,0.019 -0.078,0.038 -0.117,0.057 0.14,-0.388 0.424,-0.667 0.697,-0.963 0.175,-0.189 0.35,-0.23 0.592,-0.247 0.637,-0.047 1.252,0.163 1.885,0.125 C 0.469,-0.818 0.565,-0.843 0.662,-0.868 0.526,-0.512 0.321,-0.178 0,0" /></g><g
           transform="translate(16.5586,23.1543)"
           id="g84"><path
             id="path86"
             style="fill:#ffffff;fill-opacity:1;fill-rule:evenodd;stroke:none"
             d="m 0,0 c -0.5,0.211 -0.979,0.221 -1.413,-0.129 -0.244,-0.198 -0.509,-0.335 -0.852,-0.44 0.499,-0.243 0.987,-0.342 1.484,-0.268 0.343,0.05 0.692,0.16 0.87,0.526 C 0.159,-0.166 0.192,-0.08 0,0" /></g></g></g></g></svg>